<svg  viewBox="0 0 32 28" fill="none" xmlns="http://www.w3.org/2000/svg">
<path d="M3.10495 16.7001C3.27537 16.7001 3.44396 16.6877 3.61023 16.663V20.0494C3.61023 20.4384 3.96013 20.7524 4.39143 20.7524H9.07134C9.0749 20.7524 9.07924 20.7524 9.08175 20.7524C9.51363 20.7524 9.86296 20.4385 9.86296 20.0494C9.86296 19.8883 9.80249 19.7395 9.70045 19.62C9.58761 19.4214 9.53003 19.2144 9.53003 19.0034C9.53003 18.2381 10.2222 17.6151 11.0727 17.6151C11.9238 17.6151 12.616 18.2381 12.616 19.0034C12.616 19.2409 12.543 19.4735 12.3998 19.695C12.2587 19.913 12.2582 20.1812 12.3971 20.3999C12.5366 20.6179 12.7312 20.8527 13.0109 20.8527H17.4236C17.5473 20.8527 17.7109 20.8527 17.8563 20.8527H22.5359C22.5389 20.8527 22.5436 20.8531 22.5461 20.8527C22.9779 20.8527 23.3273 20.5382 23.3273 20.1495C23.3273 19.988 23.2673 19.8392 23.1655 19.7207C23.0526 19.5211 22.9947 19.3142 22.9947 19.1037C22.9947 18.3384 23.6875 17.7154 24.5378 17.7154C25.3881 17.7154 26.0804 18.3384 26.0804 19.1037C26.0804 19.3417 26.0076 19.5743 25.8643 19.7958C25.7238 20.0138 25.7228 20.282 25.8626 20.4998C26.002 20.7182 26.2599 20.8527 26.5397 20.8527H31.2188C31.6501 20.8527 32 20.5382 32 20.1495V15.9379C32 15.6862 31.8505 15.4536 31.6083 15.3285C31.3652 15.2028 31.0673 15.2036 30.8262 15.3304C30.5795 15.459 30.3206 15.5249 30.0566 15.5249C29.2063 15.5249 28.5141 14.9019 28.5141 14.1366C28.5141 13.3708 29.2063 12.7483 30.0566 12.7483C30.3205 12.7483 30.5795 12.8138 30.8262 12.9428C31.0673 13.0696 31.3653 13.0705 31.6083 12.9446C31.8505 12.8188 32 12.5872 32 12.3352V8.1234C32 7.73479 31.6501 7.42031 31.2188 7.42031H27.5732C27.619 7.2297 27.6428 7.0337 27.6428 6.83484C27.6428 5.29361 26.2498 4.04039 24.5378 4.04039C22.8259 4.04039 21.4324 5.29413 21.4324 6.83484C21.4324 7.03379 21.4036 7.1297 21.4505 7.32032H18.1098C17.934 7.32032 17.8998 7.32006 17.7543 7.32006H14.108C14.1551 7.12918 14.1784 6.93327 14.1784 6.73415C14.1784 5.19292 12.7851 3.9397 11.0727 3.9397C9.36096 3.9397 7.96771 5.19292 7.96771 6.73415C7.96771 6.93284 7.99115 7.12875 8.03764 7.32006H4.39143C3.96013 7.32006 3.61023 7.63454 3.61023 8.02314V11.148C3.44444 11.1236 3.27528 11.111 3.10495 11.111C1.39305 11.1112 0 12.3649 0 13.9056C0 15.4463 1.39305 16.7001 3.10495 16.7001ZM18.6371 8.82613H22.7195C23.019 8.82613 23.2926 8.67189 23.4229 8.42954C23.5531 8.18737 23.5185 7.89902 23.3324 7.68757C23.1783 7.5118 22.9947 7.22137 22.9947 6.83502C22.9947 6.0697 23.6875 5.44673 24.5378 5.44673C25.3881 5.44673 26.0804 6.0697 26.0804 6.83502C26.0804 7.2218 25.8968 7.5118 25.7426 7.68757C25.557 7.89902 25.5219 8.18737 25.6526 8.42954C25.7829 8.67241 26.0554 8.82613 26.3555 8.82613H30.4385V11.3643C30.3119 11.3499 30.1847 11.3423 30.0576 11.3423C28.3456 11.3423 26.9526 12.5955 26.9526 14.1368C26.9526 15.678 28.3456 16.9312 30.0576 16.9312C30.1847 16.9312 30.3119 16.9239 30.4385 16.9093V19.4469H27.6178C27.6351 19.333 27.6433 19.2185 27.6433 19.1045C27.6433 17.5629 26.2498 16.3096 24.5378 16.3096C22.8263 16.3096 21.4334 17.5638 21.4334 19.1045C21.4334 19.2185 21.4415 19.333 21.4583 19.4469H18.638V15.7466C18.638 15.4875 18.4794 15.249 18.2256 15.1267C17.9718 15.005 17.6636 15.0182 17.4236 15.1615C17.1698 15.3144 16.8743 15.3949 16.5701 15.3949C16.046 15.3949 15.5835 15.1569 15.3043 14.7962C15.1446 14.5783 15.0503 14.317 15.0503 14.0369C15.0503 13.2711 15.7425 12.6486 16.5936 12.6486C16.8575 12.6486 17.1154 12.714 17.3621 12.8426C17.4293 12.8782 17.5009 12.9012 17.5747 12.9167C17.7848 12.9908 18.0218 12.9835 18.2257 12.8856C18.4796 12.763 18.6381 12.525 18.6381 12.2658V8.82587L18.6371 8.82613ZM3.10495 12.5173C3.40904 12.5173 3.70378 12.5979 3.95811 12.7503C4.19768 12.895 4.5064 12.9078 4.76014 12.7851C5.0137 12.6633 5.17264 12.4245 5.17264 12.1653V8.72631H9.25516C9.55472 8.72631 9.82756 8.57207 9.95834 8.32972C10.089 8.08737 10.0542 7.7992 9.86855 7.58775C9.71385 7.41198 9.53061 7.12085 9.53061 6.73476C9.53061 5.96918 10.2228 5.34639 11.0732 5.34639C11.9244 5.34639 12.6166 5.96918 12.6166 6.73476C12.6166 7.12042 12.4322 7.41198 12.2786 7.58827C12.093 7.7998 12.0581 8.0879 12.1888 8.33024C12.3195 8.57259 12.5924 8.7264 12.8919 8.7264H16.9739V11.241C16.8401 11.2252 16.7064 11.2115 16.57 11.2115C14.8583 11.2115 13.4654 12.4658 13.4654 14.0065C13.4654 14.591 13.667 15.1338 14.009 15.583C14.5662 16.3345 15.5163 16.8311 16.5935 16.8311C16.7206 16.8311 16.8478 16.8234 16.9739 16.8087V19.3473H14.1543C14.1711 19.2333 14.1795 19.1189 14.1795 19.0045C14.1795 17.4633 12.7862 16.2101 11.074 16.2101C9.36212 16.2101 7.96878 17.4633 7.96878 19.0045C7.96878 19.1189 7.97717 19.2333 7.99395 19.3473H5.1737V15.647C5.1737 15.3875 5.01476 15.1489 4.7612 15.0263C4.50794 14.9046 4.19922 14.9178 3.95917 15.062C3.70542 15.214 3.4102 15.2946 3.10601 15.2946C2.25566 15.2946 1.56337 14.6721 1.56337 13.9062C1.56337 13.1407 2.2546 12.5173 3.10495 12.5173Z" fill="white"/>
<g >
<path d="M13 3L23 22" stroke="white" stroke-width="2" stroke-linecap="round" stroke-linejoin="round"/>
</g>
<defs>
<filter id="filter0_d" x="11.9998" y="1.99976" width="14.0004" height="21.0004" filterUnits="userSpaceOnUse" color-interpolation-filters="sRGB">
<feFlood flood-opacity="0" result="BackgroundImageFix"/>
<feColorMatrix in="SourceAlpha" type="matrix" values="0 0 0 0 0 0 0 0 0 0 0 0 0 0 0 0 0 0 127 0"/>
<feOffset dx="2"/>
<feColorMatrix type="matrix" values="0 0 0 0 0.223529 0 0 0 0 0.372549 0 0 0 0 0.964706 0 0 0 1 0"/>
<feBlend mode="normal" in2="BackgroundImageFix" result="effect1_dropShadow"/>
<feBlend mode="normal" in="SourceGraphic" in2="effect1_dropShadow" result="shape"/>
</filter>
</defs>
</svg>
