<svg width="24" height="24" viewBox="0 0 24 24" fill="none" xmlns="http://www.w3.org/2000/svg">
<path d="M12 23.5C18.4893 23.5 23.75 18.2393 23.75 11.75C23.75 5.26065 18.4893 0 12 0C5.51065 0 0.25 5.26065 0.25 11.75C0.25 18.2393 5.51065 23.5 12 23.5Z" fill="#F9FAFB"/>
<path opacity="0.9" d="M11.9298 20.952L2.83459 11.6167L11.8888 14.9155L11.9298 20.952Z" fill="#F7CE8B"/>
<path d="M20.9432 11.6167L11.9277 20.9541L11.8889 14.9155L20.9432 11.6167Z" fill="#EFC785"/>
<path fill-rule="evenodd" clip-rule="evenodd" d="M11.8889 2.5625L20.9432 11.6168L11.8889 14.9156V9.16033L11.959 9.0902L14.556 11.6872H18.4163L11.959 5.22988L11.8889 5.29922V2.5625Z" fill="#ECB45D"/>
<path fill-rule="evenodd" clip-rule="evenodd" d="M2.83472 11.6168L11.889 2.5625V5.29922L5.43162 11.6872H9.36214L11.889 9.16033V14.9156L2.83472 11.6168Z" fill="#F3B960"/>
</svg>
