<svg  viewBox="0 0 24 24" fill="none" xmlns="http://www.w3.org/2000/svg">
<path d="M12 23.75C18.4893 23.75 23.75 18.4893 23.75 12C23.75 5.51065 18.4893 0.25 12 0.25C5.51065 0.25 0.25 5.51065 0.25 12C0.25 18.4893 5.51065 23.75 12 23.75Z" fill="#F9FAFB"/>
<path d="M6.86865 12.1521L12.0579 15.1648L12.9235 8.77002L6.86865 12.1521Z" fill="#393939"/>
<path d="M12.058 3.69507L9.59937 12.3625L17.2466 12.1524L12.058 3.69507Z" fill="#343434"/>
<path d="M12.0579 3.69507L6.86865 12.1524L12.0579 9.83389V3.69507Z" fill="#8C8C8C"/>
<path d="M12.0579 20.3019L12.1855 16.2004L6.86865 13.1187L12.0579 20.3019Z" fill="#8C8C8C"/>
<path d="M12.0579 16.1306V20.3019L17.2499 13.1187L12.0579 16.1306Z" fill="#3C3C3B"/>
<path d="M12.0579 15.165L17.2465 12.1523L12.0579 9.83521V15.165Z" fill="#141414"/>
</svg>
