<svg width="24" height="14" viewBox="0 0 24 14" fill="none" xmlns="http://www.w3.org/2000/svg">
<path d="M2.32872 9.88923C2.45653 9.88923 2.58297 9.88027 2.70767 9.86247V12.3069C2.70767 12.5877 2.9701 12.8144 3.29358 12.8144H6.8035C6.80618 12.8144 6.80943 12.8144 6.81131 12.8144C7.13523 12.8144 7.39722 12.5878 7.39722 12.3069C7.39722 12.1906 7.35187 12.0832 7.27534 11.997C7.19071 11.8536 7.14752 11.7042 7.14752 11.5519C7.14752 10.9994 7.66666 10.5498 8.3045 10.5498C8.94285 10.5498 9.46199 10.9994 9.46199 11.5519C9.46199 11.7233 9.40723 11.8912 9.29989 12.0511C9.19399 12.2085 9.19363 12.4021 9.29779 12.56C9.40246 12.7173 9.54837 12.8868 9.75821 12.8868H13.0677C13.1605 12.8868 13.2832 12.8868 13.3922 12.8868H16.902C16.9042 12.8868 16.9077 12.8871 16.9095 12.8868C17.2335 12.8868 17.4955 12.6598 17.4955 12.3792C17.4955 12.2626 17.4505 12.1552 17.3741 12.0697C17.2894 11.9256 17.246 11.7762 17.246 11.6243C17.246 11.0719 17.7656 10.6221 18.4033 10.6221C19.0411 10.6221 19.5603 11.0719 19.5603 11.6243C19.5603 11.7961 19.5057 11.964 19.3982 12.1239C19.2929 12.2812 19.2921 12.4748 19.397 12.632C19.5015 12.7897 19.6949 12.8868 19.9047 12.8868H23.4141C23.7376 12.8868 24 12.6598 24 12.3792V9.33904C24 9.15734 23.8879 8.98948 23.7063 8.89919C23.5239 8.8084 23.3005 8.80903 23.1196 8.90051C22.9346 8.99337 22.7405 9.04092 22.5425 9.04092C21.9047 9.04092 21.3856 8.59124 21.3856 8.03879C21.3856 7.48604 21.9047 7.03667 22.5425 7.03667C22.7404 7.03667 22.9346 7.08391 23.1196 7.17708C23.3005 7.26862 23.524 7.26925 23.7063 7.1784C23.8879 7.08754 24 6.92038 24 6.73848V3.6982C24 3.41769 23.7376 3.19069 23.4141 3.19069H20.6799C20.7142 3.05309 20.7321 2.91161 20.7321 2.76807C20.7321 1.65554 19.6874 0.750904 18.4034 0.750904C17.1195 0.750904 16.0743 1.65591 16.0743 2.76807C16.0743 2.91168 16.0527 2.98091 16.0879 3.1185H13.5824C13.4505 3.1185 13.4249 3.11832 13.3157 3.11832H10.581C10.6163 2.98054 10.6338 2.83912 10.6338 2.69539C10.6338 1.58286 9.58879 0.678223 8.3045 0.678223C7.02072 0.678223 5.97579 1.58286 5.97579 2.69539C5.97579 2.83881 5.99336 2.98022 6.02823 3.11832H3.29358C2.9701 3.11832 2.70767 3.34532 2.70767 3.62584V5.88153C2.58333 5.86386 2.45646 5.85478 2.32872 5.85478C1.04479 5.8549 0 6.75991 0 7.87207C0 8.98422 1.04479 9.88923 2.32872 9.88923ZM13.9778 4.20547H17.0396C17.2643 4.20547 17.4695 4.09413 17.5672 3.91919C17.6649 3.74438 17.6389 3.53624 17.4993 3.38361C17.3837 3.25673 17.246 3.04708 17.246 2.76819C17.246 2.21575 17.7656 1.76606 18.4033 1.76606C19.0411 1.76606 19.5603 2.21575 19.5603 2.76819C19.5603 3.04739 19.4226 3.25673 19.307 3.38361C19.1677 3.53624 19.1414 3.74438 19.2394 3.91919C19.3371 4.09451 19.5416 4.20547 19.7666 4.20547H22.8288V6.03761C22.7339 6.02721 22.6385 6.02176 22.5432 6.02176C21.2592 6.02176 20.2145 6.92639 20.2145 8.03892C20.2145 9.15145 21.2592 10.0561 22.5432 10.0561C22.6385 10.0561 22.7339 10.0508 22.8288 10.0402V11.872H20.7134C20.7263 11.7898 20.7325 11.7071 20.7325 11.6249C20.7325 10.512 19.6873 9.6074 18.4033 9.6074C17.1198 9.6074 16.075 10.5127 16.075 11.6249C16.075 11.7071 16.0811 11.7898 16.0937 11.872H13.9785V9.20095C13.9785 9.01392 13.8595 8.8418 13.6692 8.75352C13.4788 8.66567 13.2477 8.6752 13.0677 8.77864C12.8774 8.88898 12.6557 8.94712 12.4276 8.94712C12.0345 8.94712 11.6876 8.77532 11.4782 8.51492C11.3584 8.35765 11.2877 8.16899 11.2877 7.9668C11.2877 7.41405 11.8069 6.96467 12.4452 6.96467C12.6432 6.96467 12.8366 7.01192 13.0216 7.10471C13.072 7.13046 13.1257 7.147 13.181 7.15822C13.3386 7.21173 13.5164 7.20647 13.6693 7.13579C13.8597 7.04726 13.9786 6.87545 13.9786 6.68836V4.20528L13.9778 4.20547ZM2.32872 6.86994C2.55678 6.86994 2.77784 6.92808 2.96858 7.03811C3.14826 7.14256 3.3798 7.15177 3.57011 7.06323C3.76027 6.97533 3.87948 6.8029 3.87948 6.6158V4.13341H6.94137C7.16604 4.13341 7.37067 4.02207 7.46876 3.84714C7.56677 3.6722 7.54066 3.46418 7.40141 3.31155C7.28539 3.18467 7.14796 2.97452 7.14796 2.69582C7.14796 2.14319 7.6671 1.69363 8.30494 1.69363C8.94328 1.69363 9.46242 2.14319 9.46242 2.69582C9.46242 2.97421 9.32412 3.18467 9.20896 3.31193C9.06972 3.46462 9.04361 3.67258 9.14162 3.84751C9.23963 4.02245 9.44427 4.13348 9.66893 4.13348H12.7305V5.94864C12.6301 5.93723 12.5298 5.92733 12.4275 5.92733C11.1437 5.92733 10.099 6.83272 10.099 7.94487C10.099 8.3668 10.2503 8.75866 10.5068 9.08284C10.9247 9.62532 11.6372 9.98384 12.4451 9.98384C12.5404 9.98384 12.6359 9.97826 12.7305 9.96768V11.8001H10.6157C10.6283 11.7179 10.6346 11.6352 10.6346 11.5526C10.6346 10.4402 9.58966 9.53553 8.30551 9.53553C7.02159 9.53553 5.97658 10.4402 5.97658 11.5526C5.97658 11.6352 5.98288 11.7179 5.99546 11.8001H3.88028V9.12908C3.88028 8.94174 3.76107 8.76956 3.5709 8.68102C3.38096 8.59318 3.14941 8.6027 2.96938 8.70677C2.77907 8.81649 2.55765 8.8747 2.32951 8.8747C1.69174 8.8747 1.17253 8.42532 1.17253 7.8725C1.17253 7.31994 1.69095 6.86994 2.32872 6.86994Z" fill="white"/>
</svg>
