<svg viewBox="0 0 48 48" fill="none" xmlns="http://www.w3.org/2000/svg">
<path d="M44.8056 3L26.8169 16.3605L30.1434 8.47797L44.8056 3Z" fill="#E2761B" stroke="#E2761B" stroke-linecap="round" stroke-linejoin="round"/>
<path d="M3.27795 3L21.122 16.487L17.9582 8.47797L3.27795 3Z" fill="#E4761B" stroke="#E4761B" stroke-linecap="round" stroke-linejoin="round"/>
<path d="M38.3333 33.9695L33.5424 41.3096L43.7932 44.1299L46.7401 34.1322L38.3333 33.9695Z" fill="#E4761B" stroke="#E4761B" stroke-linecap="round" stroke-linejoin="round"/>
<path d="M1.37964 34.1322L4.30845 44.1299L14.5593 41.3096L9.76834 33.9695L1.37964 34.1322Z" fill="#E4761B" stroke="#E4761B" stroke-linecap="round" stroke-linejoin="round"/>
<path d="M13.9808 21.5671L11.1243 25.888L21.3028 26.34L20.9412 15.4021L13.9808 21.5671Z" fill="#E4761B" stroke="#E4761B" stroke-linecap="round" stroke-linejoin="round"/>
<path d="M34.1028 21.5674L27.0519 15.2759L26.8169 26.3403L36.9773 25.8883L34.1028 21.5674Z" fill="#E4761B" stroke="#E4761B" stroke-linecap="round" stroke-linejoin="round"/>
<path d="M14.5593 41.3094L20.6701 38.3264L15.391 34.2043L14.5593 41.3094Z" fill="#E4761B" stroke="#E4761B" stroke-linecap="round" stroke-linejoin="round"/>
<path d="M27.4136 38.3264L33.5424 41.3094L32.6927 34.2043L27.4136 38.3264Z" fill="#E4761B" stroke="#E4761B" stroke-linecap="round" stroke-linejoin="round"/>
<path d="M33.5424 41.3097L27.4136 38.3267L27.9017 42.3221L27.8475 44.0035L33.5424 41.3097Z" fill="#D7C1B3" stroke="#D7C1B3" stroke-linecap="round" stroke-linejoin="round"/>
<path d="M14.5593 41.3097L20.2542 44.0035L20.2181 42.3221L20.6701 38.3267L14.5593 41.3097Z" fill="#D7C1B3" stroke="#D7C1B3" stroke-linecap="round" stroke-linejoin="round"/>
<path d="M20.3447 31.5647L15.2463 30.0641L18.8441 28.4189L20.3447 31.5647Z" fill="#233447" stroke="#233447" stroke-linecap="round" stroke-linejoin="round"/>
<path d="M27.739 31.5647L29.2396 28.4189L32.8554 30.0641L27.739 31.5647Z" fill="#233447" stroke="#233447" stroke-linecap="round" stroke-linejoin="round"/>
<path d="M14.5593 41.3096L15.4271 33.9695L9.76831 34.1322L14.5593 41.3096Z" fill="#CD6116" stroke="#CD6116" stroke-linecap="round" stroke-linejoin="round"/>
<path d="M32.6746 33.9695L33.5424 41.3096L38.3333 34.1322L32.6746 33.9695Z" fill="#CD6116" stroke="#CD6116" stroke-linecap="round" stroke-linejoin="round"/>
<path d="M36.9773 25.8879L26.8169 26.3399L27.757 31.5648L29.2576 28.419L32.8734 30.0642L36.9773 25.8879Z" fill="#CD6116" stroke="#CD6116" stroke-linecap="round" stroke-linejoin="round"/>
<path d="M15.2463 30.0642L18.8621 28.419L20.3446 31.5648L21.3028 26.3399L11.1243 25.8879L15.2463 30.0642Z" fill="#CD6116" stroke="#CD6116" stroke-linecap="round" stroke-linejoin="round"/>
<path d="M11.1243 25.8879L15.3909 34.2043L15.2463 30.0642L11.1243 25.8879Z" fill="#E4751F" stroke="#E4751F" stroke-linecap="round" stroke-linejoin="round"/>
<path d="M32.8734 30.0642L32.6926 34.2043L36.9774 25.8879L32.8734 30.0642Z" fill="#E4751F" stroke="#E4751F" stroke-linecap="round" stroke-linejoin="round"/>
<path d="M21.3028 26.3398L20.3446 31.5647L21.5378 37.7297L21.809 29.6122L21.3028 26.3398Z" fill="#E4751F" stroke="#E4751F" stroke-linecap="round" stroke-linejoin="round"/>
<path d="M26.8169 26.3398L26.3287 29.5941L26.5457 37.7297L27.757 31.5647L26.8169 26.3398Z" fill="#E4751F" stroke="#E4751F" stroke-linecap="round" stroke-linejoin="round"/>
<path d="M27.7571 31.565L26.5458 37.73L27.4136 38.3266L32.6927 34.2046L32.8735 30.0645L27.7571 31.565Z" fill="#F6851B" stroke="#F6851B" stroke-linecap="round" stroke-linejoin="round"/>
<path d="M15.2463 30.0645L15.391 34.2046L20.6701 38.3266L21.5379 37.73L20.3446 31.565L15.2463 30.0645Z" fill="#F6851B" stroke="#F6851B" stroke-linecap="round" stroke-linejoin="round"/>
<path d="M27.8475 44.0034L27.9017 42.322L27.4497 41.9243H20.6339L20.2181 42.322L20.2542 44.0034L14.5593 41.3096L16.548 42.9367L20.5797 45.7389H27.504L31.5537 42.9367L33.5424 41.3096L27.8475 44.0034Z" fill="#C0AD9E" stroke="#C0AD9E" stroke-linecap="round" stroke-linejoin="round"/>
<path d="M27.4135 38.3263L26.5457 37.7297H21.5378L20.67 38.3263L20.218 42.3218L20.6338 41.9241H27.4497L27.9016 42.3218L27.4135 38.3263Z" fill="#161616" stroke="#161616" stroke-linecap="round" stroke-linejoin="round"/>
<path d="M45.565 17.2282L47.1017 9.85198L44.8057 3L27.4136 15.9085L34.1028 21.5672L43.5582 24.3333L45.6554 21.8927L44.7514 21.2418L46.1978 19.922L45.0769 19.0542L46.5232 17.9514L45.565 17.2282Z" fill="#763D16" stroke="#763D16" stroke-linecap="round" stroke-linejoin="round"/>
<path d="M1 9.85198L2.53672 17.2282L1.56045 17.9514L3.00678 19.0542L1.90395 19.922L3.35028 21.2418L2.44633 21.8927L4.52542 24.3333L13.9808 21.5672L20.6701 15.9085L3.27797 3L1 9.85198Z" fill="#763D16" stroke="#763D16" stroke-linecap="round" stroke-linejoin="round"/>
<path d="M43.5582 24.3332L34.1028 21.5671L36.9774 25.888L32.6926 34.2044L38.3333 34.1321H46.7401L43.5582 24.3332Z" fill="#F6851B" stroke="#F6851B" stroke-linecap="round" stroke-linejoin="round"/>
<path d="M13.9808 21.5671L4.5254 24.3332L1.37964 34.1321H9.76834L15.3909 34.2044L11.1243 25.888L13.9808 21.5671Z" fill="#F6851B" stroke="#F6851B" stroke-linecap="round" stroke-linejoin="round"/>
<path d="M26.817 26.3399L27.4136 15.9083L30.1616 8.47778H17.9583L20.6701 15.9083L21.3029 26.3399L21.5198 29.6303L21.5379 37.7298H26.5458L26.582 29.6303L26.817 26.3399Z" fill="#F6851B" stroke="#F6851B" stroke-linecap="round" stroke-linejoin="round"/>
</svg>
