<svg width="48" height="48" viewBox="0 0 48 48" fill="none" xmlns="http://www.w3.org/2000/svg">
<path d="M37.404 4.00002H19.184V28.588H43.772V10.368C43.7739 9.53124 43.6104 8.70234 43.291 7.9289C42.9717 7.15547 42.5027 6.45273 41.911 5.86104C41.3193 5.26935 40.6166 4.80036 39.8431 4.48099C39.0697 4.16162 38.2408 3.99817 37.404 4.00002ZM13.502 4.00002H10.368C9.53124 3.99817 8.70234 4.16162 7.9289 4.48099C7.15547 4.80036 6.45273 5.26935 5.86104 5.86104C5.26935 6.45273 4.80036 7.15547 4.48099 7.9289C4.16162 8.70234 3.99817 9.53124 4.00002 10.368V13.5H13.502V4.00002ZM4.00002 19.184H13.502V28.686H4.00002V19.184ZM34.368 43.772H37.502C38.3388 43.7739 39.1677 43.6104 39.9411 43.291C40.7146 42.9717 41.4173 42.5027 42.009 41.911C42.6007 41.3193 43.0697 40.6166 43.389 39.8431C43.7084 39.0697 43.8719 38.2408 43.87 37.404V34.368H34.368V43.772ZM19.184 34.368H28.686V43.87H19.184V34.368ZM4.00002 34.368V37.502C3.99817 38.3388 4.16162 39.1677 4.48099 39.9411C4.80036 40.7146 5.26935 41.4173 5.86104 42.009C6.45273 42.6007 7.15547 43.0697 7.9289 43.389C8.70234 43.7084 9.53124 43.8719 10.368 43.87H13.5V34.368H4.00002Z" fill="#142533"/>
</svg>
